# Blender 3.4.0
# www.blender.org
mtllib button_11.mtl
o button_11
v 0.027661 0.024874 0.022000
v 0.025249 0.022533 0.022000
v 0.025177 0.002529 0.022000
v 0.027731 0.000046 0.022000
v 0.050218 -0.000025 0.022000
v 0.052700 0.002529 0.022000
v 0.052700 0.022533 0.022000
v 0.050218 0.024945 0.022000
v 0.027661 0.024874 0.026000
v 0.025249 0.022533 0.026000
v 0.025177 0.002529 0.026000
v 0.027731 0.000046 0.026000
v 0.050218 -0.000025 0.026000
v 0.052700 0.002529 0.026000
v 0.052700 0.022533 0.026000
v 0.050218 0.024945 0.026000
v 0.027662 -0.007668 0.022000
v 0.025249 -0.010009 0.022000
v 0.025178 -0.030012 0.022000
v 0.027732 -0.032495 0.022000
v 0.050219 -0.032566 0.022000
v 0.052701 -0.030012 0.022000
v 0.052701 -0.010009 0.022000
v 0.050219 -0.007597 0.022000
v 0.027662 -0.007668 0.025999
v 0.025249 -0.010009 0.025999
v 0.025178 -0.030012 0.025999
v 0.027732 -0.032495 0.025999
v 0.050219 -0.032566 0.025999
v 0.052701 -0.030012 0.025999
v 0.052701 -0.010009 0.025999
v 0.050219 -0.007597 0.025999
v 0.027662 -0.040209 0.022000
v 0.025249 -0.042550 0.022000
v 0.025178 -0.062554 0.022000
v 0.027732 -0.065037 0.022000
v 0.050219 -0.065108 0.022000
v 0.052701 -0.062554 0.022000
v 0.052701 -0.042550 0.022000
v 0.050219 -0.040139 0.022000
v 0.027662 -0.040209 0.025999
v 0.025249 -0.042550 0.025999
v 0.025178 -0.062554 0.025999
v 0.027732 -0.065037 0.025999
v 0.050219 -0.065108 0.025999
v 0.052701 -0.062554 0.025999
v 0.052701 -0.042550 0.025999
v 0.050219 -0.040139 0.025999
v -0.047399 -0.040209 0.022000
v -0.049811 -0.042550 0.022000
v -0.049883 -0.062554 0.022000
v -0.047329 -0.065037 0.022000
v 0.017699 -0.065108 0.022000
v 0.020182 -0.062554 0.022000
v 0.020182 -0.042550 0.022000
v 0.017699 -0.040139 0.022000
v -0.047399 -0.040209 0.025999
v -0.049811 -0.042550 0.025999
v -0.049883 -0.062554 0.025999
v -0.047329 -0.065037 0.025999
v 0.017699 -0.065108 0.025999
v 0.020182 -0.062554 0.025999
v 0.020182 -0.042550 0.025999
v 0.017699 -0.040139 0.025999
v -0.047399 -0.007635 0.022000
v -0.049811 -0.009976 0.022000
v -0.049883 -0.029980 0.022000
v -0.047329 -0.032463 0.022000
v 0.017699 -0.032534 0.022000
v 0.020182 -0.029980 0.022000
v 0.020182 -0.009976 0.022000
v 0.017699 -0.007565 0.022000
v -0.047399 -0.007635 0.025999
v -0.049811 -0.009976 0.025999
v -0.049883 -0.029980 0.025999
v -0.047329 -0.032463 0.025999
v 0.017699 -0.032534 0.025999
v 0.020182 -0.029980 0.025999
v 0.020182 -0.009976 0.025999
v 0.017699 -0.007565 0.025999
v 0.059999 -0.100000 0.014500
v 0.059999 0.100000 0.022000
v -0.060001 -0.100000 0.014500
v -0.060000 0.100000 0.022000
v 0.059999 -0.075225 0.021951
v -0.060001 -0.100000 0.000000
v -0.060000 0.100000 0.000000
v 0.060000 0.100000 0.000000
v 0.059999 -0.100000 0.000000
v -0.060001 -0.075225 0.021952
vn -1.0000 -0.0000 -0.0000
vn -0.0000 -1.0000 -0.0000
vn -0.0031 1.0000 -0.0000
vn 0.7171 -0.6970 -0.0000
vn -0.6971 -0.7170 -0.0000
vn 1.0000 -0.0000 -0.0000
vn -0.0032 -1.0000 -0.0000
vn -1.0000 0.0036 -0.0000
vn 0.6968 0.7172 -0.0000
vn -0.0000 -0.0000 1.0000
vn -0.6963 0.7177 -0.0000
vn -0.0011 1.0000 -0.0000
vn -0.0011 -1.0000 -0.0000
vn -0.0000 -0.2880 0.9576
vn -0.0000 -0.0003 1.0000
vn -0.0000 1.0000 -0.0000
vn -0.0000 -0.0000 -1.0000
vt 0.489583 0.556250
vt 0.489583 0.368750
vt 0.489583 0.568750
vt 0.489583 0.568750
vt 0.489583 0.468750
vt 0.489583 0.556250
vt 0.489583 0.481250
vt 0.489583 0.456250
vt 0.489583 0.468750
vt 0.489583 0.368750
vt 0.489583 0.443750
vt 0.489583 0.456250
vt 0.365837 0.622297
vt 0.500000 0.556250
vt 0.500000 0.368750
vt 0.356037 0.610887
vt 0.500000 0.568750
vt 0.500000 0.568750
vt 0.500000 0.468750
vt 0.355747 0.513388
vt 0.500000 0.556250
vt 0.366120 0.501286
vt 0.500000 0.481250
vt 0.500000 0.456250
vt 0.457455 0.500940
vt 0.500000 0.468750
vt 0.467538 0.513388
vt 0.500000 0.368750
vt 0.500000 0.443750
vt 0.467538 0.610887
vt 0.500000 0.456250
vt 0.457455 0.622642
vt 0.489583 0.556250
vt 0.489583 0.531250
vt 0.489583 0.568750
vt 0.489583 0.568750
vt 0.489583 0.631250
vt 0.489583 0.556250
vt 0.489583 0.643750
vt 0.489583 0.456250
vt 0.489583 0.631250
vt 0.489583 0.531250
vt 0.489583 0.443750
vt 0.489583 0.456250
vt 0.365841 0.460586
vt 0.500000 0.556250
vt 0.500000 0.531250
vt 0.356040 0.449177
vt 0.500000 0.568750
vt 0.500000 0.568750
vt 0.500000 0.631250
vt 0.355750 0.351677
vt 0.500000 0.556250
vt 0.366123 0.339575
vt 0.500000 0.643750
vt 0.500000 0.456250
vt 0.457458 0.339230
vt 0.500000 0.631250
vt 0.467541 0.351677
vt 0.500000 0.531250
vt 0.500000 0.443750
vt 0.467541 0.449177
vt 0.500000 0.456250
vt 0.457458 0.460932
vt 0.489583 0.556250
vt 0.489583 0.693750
vt 0.489583 0.568750
vt 0.489583 0.568750
vt 0.489583 0.781250
vt 0.489583 0.556250
vt 0.489583 0.793750
vt 0.489583 0.456250
vt 0.489583 0.781250
vt 0.489583 0.693750
vt 0.489583 0.443750
vt 0.489583 0.456250
vt 0.365841 0.298058
vt 0.500000 0.556250
vt 0.500000 0.693750
vt 0.356040 0.286649
vt 0.500000 0.568750
vt 0.500000 0.568750
vt 0.500000 0.781250
vt 0.355750 0.189149
vt 0.500000 0.556250
vt 0.366123 0.177047
vt 0.500000 0.793750
vt 0.500000 0.456250
vt 0.457458 0.176701
vt 0.500000 0.781250
vt 0.467541 0.189149
vt 0.500000 0.693750
vt 0.500000 0.443750
vt 0.467541 0.286649
vt 0.500000 0.456250
vt 0.457458 0.298404
vt 0.489583 0.931250
vt 0.489583 0.693750
vt 0.489583 0.943750
vt 0.489583 0.943750
vt 0.489583 0.781250
vt 0.489583 0.931250
vt 0.489583 0.793750
vt 0.489583 0.606250
vt 0.489583 0.781250
vt 0.489583 0.693750
vt 0.489583 0.593750
vt 0.489583 0.606250
vt 0.063425 0.298550
vt 0.500000 0.931250
vt 0.500000 0.693750
vt 0.053625 0.287141
vt 0.500000 0.943750
vt 0.500000 0.943750
vt 0.500000 0.781250
vt 0.053335 0.189641
vt 0.500000 0.931250
vt 0.063708 0.177539
vt 0.500000 0.793750
vt 0.500000 0.606250
vt 0.327834 0.177194
vt 0.500000 0.781250
vt 0.337917 0.189641
vt 0.500000 0.693750
vt 0.500000 0.593750
vt 0.337917 0.287141
vt 0.500000 0.606250
vt 0.327834 0.298896
vt 0.489583 0.931250
vt 0.489583 0.531250
vt 0.489583 0.943750
vt 0.489583 0.943750
vt 0.489583 0.631250
vt 0.489583 0.931250
vt 0.489583 0.643750
vt 0.489583 0.606250
vt 0.489583 0.631250
vt 0.489583 0.531250
vt 0.489583 0.593750
vt 0.489583 0.606250
vt 0.063425 0.460271
vt 0.500000 0.931250
vt 0.500000 0.531250
vt 0.053625 0.448862
vt 0.500000 0.943750
vt 0.500000 0.943750
vt 0.500000 0.631250
vt 0.053335 0.351362
vt 0.500000 0.931250
vt 0.063708 0.339260
vt 0.500000 0.643750
vt 0.500000 0.606250
vt 0.327834 0.338915
vt 0.500000 0.631250
vt 0.337917 0.351362
vt 0.500000 0.531250
vt 0.500000 0.593750
vt 0.337917 0.448862
vt 0.500000 0.606250
vt 0.327834 0.460617
vt 0.939583 0.724774
vt 0.500000 0.000000
vt 0.939583 0.000000
vt 0.908333 1.000000
vt 0.500000 1.000000
vt 0.908333 0.724774
vt 0.939583 0.000000
vt 0.939583 0.124774
vt 0.000000 0.000000
vt 0.908333 1.000000
vt 0.000003 1.000000
vt 0.908333 0.124777
vt 0.908536 0.123873
vt 0.500000 0.123873
vt 1.000000 0.000000
vt 1.000000 0.124774
vt 0.499998 0.000000
vt 1.000000 1.000000
vt 1.000000 0.124776
vt 0.500000 1.000000
vt 1.000000 0.724776
vt 1.000000 1.000000
vt 1.000000 0.724774
vt 0.999998 0.000000
vt 0.908535 0.123873
vt 0.000000 0.123873
s 0
usemtl button_11
f 86/175/1 83/167/1 90/185/1 84/170/1 87/178/1
f 83/168/2 86/176/2 89/183/2 81/161/2
f 8/12/3 1/1/3 9/14/3 16/31/3
f 5/7/4 6/9/4 14/26/4 13/23/4
f 3/4/5 4/6/5 12/21/5 11/18/5
f 6/9/6 7/10/6 15/28/6 14/26/6
f 4/6/7 5/8/7 13/24/7 12/21/7
f 2/2/8 3/5/8 11/19/8 10/15/8
f 7/11/9 8/12/9 16/31/9 15/29/9
f 16/32/10 9/13/10 10/16/10 11/20/10 12/22/10 13/25/10 14/27/10 15/30/10
f 1/1/11 2/3/11 10/17/11 9/14/11
f 24/44/3 17/33/3 25/46/3 32/63/3
f 21/39/4 22/41/4 30/58/4 29/55/4
f 19/36/5 20/38/5 28/53/5 27/50/5
f 22/41/6 23/42/6 31/60/6 30/58/6
f 20/38/7 21/40/7 29/56/7 28/53/7
f 18/34/8 19/37/8 27/51/8 26/47/8
f 23/43/9 24/44/9 32/63/9 31/61/9
f 32/64/10 25/45/10 26/48/10 27/52/10 28/54/10 29/57/10 30/59/10 31/62/10
f 17/33/11 18/35/11 26/49/11 25/46/11
f 40/76/3 33/65/3 41/78/3 48/95/3
f 37/71/4 38/73/4 46/90/4 45/87/4
f 35/68/5 36/70/5 44/85/5 43/82/5
f 38/73/6 39/74/6 47/92/6 46/90/6
f 36/70/7 37/72/7 45/88/7 44/85/7
f 34/66/8 35/69/8 43/83/8 42/79/8
f 39/75/9 40/76/9 48/95/9 47/93/9
f 48/96/10 41/77/10 42/80/10 43/84/10 44/86/10 45/89/10 46/91/10 47/94/10
f 33/65/11 34/67/11 42/81/11 41/78/11
f 56/108/12 49/97/12 57/110/12 64/127/12
f 53/103/4 54/105/4 62/122/4 61/119/4
f 51/100/5 52/102/5 60/117/5 59/114/5
f 54/105/6 55/106/6 63/124/6 62/122/6
f 52/102/13 53/104/13 61/120/13 60/117/13
f 50/98/8 51/101/8 59/115/8 58/111/8
f 55/107/9 56/108/9 64/127/9 63/125/9
f 64/128/10 57/109/10 58/112/10 59/116/10 60/118/10 61/121/10 62/123/10 63/126/10
f 49/97/11 50/99/11 58/113/11 57/110/11
f 72/140/12 65/129/12 73/142/12 80/159/12
f 69/135/4 70/137/4 78/154/4 77/151/4
f 67/132/5 68/134/5 76/149/5 75/146/5
f 70/137/6 71/138/6 79/156/6 78/154/6
f 68/134/13 69/136/13 77/152/13 76/149/13
f 66/130/8 67/133/8 75/147/8 74/143/8
f 71/139/9 72/140/9 80/159/9 79/157/9
f 80/160/10 73/141/10 74/144/10 75/148/10 76/150/10 77/153/10 78/155/10 79/158/10
f 65/129/11 66/131/11 74/145/11 73/142/11
f 83/169/14 81/162/14 85/174/14 90/186/14
f 81/163/6 89/184/6 88/182/6 82/164/6 85/173/6
f 90/186/15 85/174/15 82/165/15 84/171/15
f 84/172/16 82/166/16 88/181/16 87/179/16
f 87/180/17 88/182/17 89/184/17 86/177/17
