# Blender 3.4.0
# www.blender.org
mtllib drain_cover_3.mtl
o drain_cover_3
v -0.000000 0.020000 -0.109223
v 0.094590 0.020000 -0.054612
v 0.054612 0.020000 -0.094590
v 0.051764 -0.000000 0.193185
v 0.000000 -0.000000 0.200000
v -0.200000 0.000000 0.000000
v -0.193185 0.000000 -0.051764
v -0.000000 0.000000 -0.200000
v 0.051764 0.000000 -0.193185
v 0.193185 0.000000 -0.051764
v 0.200000 0.000000 0.000000
v 0.193185 0.000000 0.051764
v 0.173205 -0.000000 0.100000
v 0.141421 -0.000000 0.141421
v 0.100000 -0.000000 0.173205
v -0.193185 0.000000 0.051764
v -0.173205 0.000000 0.100000
v -0.141421 -0.000000 0.141421
v -0.100000 -0.000000 0.173205
v -0.051764 -0.000000 0.193185
v -0.173205 0.000000 -0.100000
v -0.141421 0.000000 -0.141421
v -0.100000 0.000000 -0.173205
v -0.051764 0.000000 -0.193185
v 0.173205 0.000000 -0.100000
v 0.141421 0.000000 -0.141421
v 0.100000 0.000000 -0.173205
v 0.028269 0.020000 0.105502
v 0.023048 0.035000 0.086016
v -0.000000 0.035000 0.089051
v -0.000000 0.020000 0.109223
v -0.109223 0.020000 -0.000000
v -0.089051 0.035000 0.000000
v -0.086016 0.035000 -0.023048
v -0.105502 0.020000 -0.028269
v -0.000000 0.035000 -0.089051
v 0.023048 0.035000 -0.086016
v 0.028269 0.020000 -0.105502
v 0.105502 0.020000 -0.028269
v 0.086016 0.035000 -0.023048
v 0.089051 0.035000 0.000000
v 0.109223 0.020000 -0.000000
v 0.086016 0.035000 0.023048
v 0.105502 0.020000 0.028269
v 0.077120 0.035000 0.044525
v 0.094590 0.020000 0.054612
v 0.062968 0.035000 0.062968
v 0.077233 0.020000 0.077233
v 0.044525 0.035000 0.077120
v 0.054612 0.020000 0.094590
v -0.105502 0.020000 0.028269
v -0.086016 0.035000 0.023048
v -0.094590 0.020000 0.054612
v -0.077120 0.035000 0.044525
v -0.077233 0.020000 0.077233
v -0.062968 0.035000 0.062968
v -0.054612 0.020000 0.094590
v -0.044525 0.035000 0.077120
v -0.028269 0.020000 0.105502
v -0.023048 0.035000 0.086016
v -0.077120 0.035000 -0.044525
v -0.094590 0.020000 -0.054612
v -0.062968 0.035000 -0.062968
v -0.077233 0.020000 -0.077233
v -0.044525 0.035000 -0.077120
v -0.054612 0.020000 -0.094590
v -0.023048 0.035000 -0.086016
v -0.028269 0.020000 -0.105502
v 0.077120 0.035000 -0.044525
v 0.077233 0.020000 -0.077233
v 0.062968 0.035000 -0.062968
v 0.044525 0.035000 -0.077120
v -0.000000 0.020000 0.177306
v -0.171264 0.020000 -0.045890
v 0.045890 0.020000 -0.171264
v 0.177306 0.020000 -0.000000
v 0.171264 0.020000 0.045890
v 0.153551 0.020000 0.088653
v 0.125374 0.020000 0.125374
v 0.088653 0.020000 0.153551
v -0.153551 0.020000 -0.088653
v -0.125374 0.020000 -0.125374
v -0.088653 0.020000 -0.153551
v -0.045890 0.020000 -0.171264
v -0.000000 0.020000 -0.177306
v 0.153551 0.020000 -0.088653
v 0.088653 0.020000 -0.153551
v 0.045890 0.020000 0.171264
v -0.177306 0.020000 -0.000000
v 0.171264 0.020000 -0.045890
v -0.171264 0.020000 0.045890
v -0.153551 0.020000 0.088653
v -0.125374 0.020000 0.125374
v -0.088653 0.020000 0.153551
v -0.045890 0.020000 0.171264
v 0.125374 0.020000 -0.125374
vn 0.1711 0.7502 0.6386
vn -0.0000 0.7502 0.6612
vn -0.6612 0.7502 -0.0000
vn -0.6386 0.7502 -0.1711
vn -0.0000 0.7502 -0.6612
vn 0.1711 0.7502 -0.6386
vn 0.6386 0.7502 -0.1711
vn 0.6612 0.7502 -0.0000
vn 0.6386 0.7502 0.1711
vn 0.5726 0.7502 0.3306
vn 0.4675 0.7502 0.4675
vn 0.3306 0.7502 0.5726
vn -0.6386 0.7502 0.1711
vn -0.5726 0.7502 0.3306
vn -0.4675 0.7502 0.4675
vn -0.3306 0.7502 0.5726
vn -0.1711 0.7502 0.6386
vn -0.5726 0.7502 -0.3306
vn -0.4675 0.7502 -0.4675
vn -0.3306 0.7502 -0.5726
vn -0.1711 0.7502 -0.6386
vn 0.5726 0.7502 -0.3306
vn 0.4675 0.7502 -0.4675
vn 0.3306 0.7502 -0.5726
vn -0.0895 0.9918 0.0909
vn -0.1110 0.9918 0.0632
vn 0.1101 0.9918 -0.0647
vn 0.1265 0.9918 -0.0166
vn 0.1265 0.8725 -0.4720
vn 0.2375 0.3974 -0.8864
vn -0.0000 0.3974 -0.9176
vn 0.1021 0.8915 -0.4414
vn -0.4753 0.8706 -0.1273
vn -0.8864 0.3974 -0.2375
vn -0.9176 0.3974 -0.0000
vn -0.4431 0.8903 0.1048
vn 0.4914 0.8709 -0.0000
vn 0.9176 0.3974 -0.0000
vn 0.8864 0.3974 -0.2375
vn 0.4011 0.8901 -0.2165
vn 0.4753 0.8706 0.1273
vn 0.8864 0.3974 0.2375
vn 0.4251 0.8712 0.2454
vn 0.7947 0.3974 0.4588
vn 0.3464 0.8718 0.3464
vn 0.6489 0.3974 0.6489
vn 0.2446 0.8722 0.4236
vn 0.4588 0.3974 0.7947
vn 0.1265 0.8725 0.4720
vn 0.2375 0.3974 0.8864
vn -0.8864 0.3974 0.2375
vn -0.4011 0.8901 0.2165
vn -0.7947 0.3974 0.4588
vn -0.3313 0.8906 0.3117
vn -0.6489 0.3974 0.6489
vn -0.2396 0.8909 0.3858
vn -0.4588 0.3974 0.7947
vn -0.1320 0.8912 0.4339
vn -0.2375 0.3974 0.8864
vn -0.2130 0.8914 0.4000
vn -0.0000 0.3974 0.9176
vn -0.1285 0.9266 0.3534
vn -0.4251 0.8712 -0.2454
vn -0.7947 0.3974 -0.4588
vn -0.3464 0.8718 -0.3464
vn -0.6489 0.3974 -0.6489
vn -0.2446 0.8722 -0.4236
vn -0.4588 0.3974 -0.7947
vn 0.0290 0.9196 -0.3918
vn -0.2375 0.3974 -0.8864
vn 0.7947 0.3974 -0.4588
vn 0.3313 0.8906 -0.3117
vn 0.6489 0.3974 -0.6489
vn 0.2396 0.8909 -0.3858
vn 0.4588 0.3974 -0.7947
vn 0.1320 0.8912 -0.4339
vn -0.0331 0.9918 -0.1234
vn -0.0330 0.9918 0.1234
vn -0.0642 0.9917 -0.1111
vn 0.0322 0.9917 0.1241
vn 0.0642 0.9917 0.1111
vn -0.0322 0.9917 -0.1241
vn 0.0913 0.9916 0.0913
vn 0.0010 0.9916 -0.1291
vn 0.1128 0.9915 0.0651
vn 0.0347 0.9915 -0.1255
vn 0.1271 0.9913 0.0340
vn 0.0667 0.9913 -0.1134
vn 0.0932 0.9914 -0.0918
vn -0.0913 0.9916 -0.0913
vn -0.0010 0.9916 0.1291
vn -0.1128 0.9915 -0.0651
vn -0.0347 0.9915 0.1255
vn -0.1271 0.9913 -0.0340
vn -0.0666 0.9913 0.1134
vn -0.1309 0.9914 -0.0000
vn -0.0000 1.0000 -0.0000
vt 0.226941 0.500000
vt 0.363471 0.736476
vt 0.263525 0.636530
vt 0.982964 0.629409
vt 1.000000 0.500000
vt 0.500000 0.000000
vt 0.370590 0.017037
vt 0.000000 0.500000
vt 0.017036 0.629409
vt 0.370590 0.982963
vt 0.500000 1.000000
vt 0.629410 0.982963
vt 0.750000 0.933012
vt 0.853554 0.853553
vt 0.933013 0.750000
vt 0.629410 0.017037
vt 0.750000 0.066987
vt 0.853554 0.146447
vt 0.933013 0.250000
vt 0.982964 0.370591
vt 0.250000 0.066987
vt 0.146446 0.146447
vt 0.066987 0.250000
vt 0.017036 0.370591
vt 0.250000 0.933012
vt 0.146446 0.853553
vt 0.066987 0.750000
vt 0.763754 0.570673
vt 0.715042 0.557620
vt 0.722627 0.500000
vt 0.773058 0.500000
vt 0.500000 0.226942
vt 0.500000 0.277373
vt 0.442380 0.284959
vt 0.429327 0.236246
vt 0.277373 0.500000
vt 0.284958 0.557620
vt 0.236246 0.570673
vt 0.429327 0.763754
vt 0.442380 0.715041
vt 0.500000 0.722627
vt 0.500000 0.773058
vt 0.557620 0.715041
vt 0.570673 0.763754
vt 0.611314 0.692801
vt 0.636529 0.736476
vt 0.657421 0.657421
vt 0.693081 0.693081
vt 0.692801 0.611314
vt 0.736475 0.636530
vt 0.570673 0.236246
vt 0.557620 0.284959
vt 0.636529 0.263525
vt 0.611314 0.307199
vt 0.693081 0.306919
vt 0.657421 0.342579
vt 0.736475 0.363470
vt 0.692801 0.388686
vt 0.763754 0.429327
vt 0.715042 0.442380
vt 0.388685 0.307199
vt 0.363471 0.263525
vt 0.342579 0.342579
vt 0.306919 0.306919
vt 0.307199 0.388686
vt 0.263525 0.363470
vt 0.284958 0.442380
vt 0.236246 0.429327
vt 0.388685 0.692801
vt 0.306919 0.693081
vt 0.342579 0.657421
vt 0.307199 0.611314
vt 0.935391 0.501037
vt 0.935391 0.498964
vt 0.388313 0.079176
vt 0.386311 0.079713
vt 0.079712 0.613689
vt 0.079175 0.611686
vt 0.498963 0.935391
vt 0.501036 0.935391
vt 0.611687 0.920824
vt 0.613689 0.920287
vt 0.716798 0.877578
vt 0.718593 0.876542
vt 0.807135 0.808601
vt 0.808601 0.807135
vt 0.876542 0.718593
vt 0.877578 0.716798
vt 0.283202 0.122422
vt 0.281407 0.123458
vt 0.192865 0.191399
vt 0.191399 0.192865
vt 0.123458 0.281407
vt 0.122422 0.283202
vt 0.079712 0.386311
vt 0.079175 0.388314
vt 0.064608 0.501037
vt 0.064608 0.498964
vt 0.283202 0.877578
vt 0.281407 0.876541
vt 0.122422 0.716798
vt 0.123458 0.718594
vt 0.920825 0.611686
vt 0.920288 0.613689
vt 0.498963 0.064609
vt 0.501036 0.064609
vt 0.388313 0.920824
vt 0.386311 0.920287
vt 0.611687 0.079176
vt 0.613689 0.079713
vt 0.716798 0.122422
vt 0.718593 0.123458
vt 0.807135 0.191399
vt 0.808601 0.192865
vt 0.876542 0.281407
vt 0.877578 0.283202
vt 0.920289 0.386311
vt 0.920825 0.388314
vt 0.192865 0.808601
vt 0.191399 0.807135
s 1
usemtl drain_cover_3
f 88/104/1 73/74/2 5/5/2 4/4/1
f 89/106/3 74/76/4 7/7/4 6/6/3
f 85/98/5 75/77/6 9/9/6 8/8/5
f 90/108/7 76/80/8 11/11/8 10/10/7
f 76/79/8 77/82/9 12/12/9 11/11/8
f 77/81/9 78/84/10 13/13/10 12/12/9
f 78/83/10 79/86/11 14/14/11 13/13/10
f 79/85/11 80/88/12 15/15/12 14/14/11
f 80/87/12 88/103/1 4/4/1 15/15/12
f 91/110/13 89/105/3 6/6/3 16/16/13
f 92/112/14 91/109/13 16/16/13 17/17/14
f 93/114/15 92/111/14 17/17/14 18/18/15
f 94/116/16 93/113/15 18/18/15 19/19/16
f 95/118/17 94/115/16 19/19/16 20/20/17
f 73/73/2 95/117/17 20/20/17 5/5/2
f 74/75/4 81/90/18 21/21/18 7/7/4
f 81/89/18 82/92/19 22/22/19 21/21/18
f 82/91/19 83/94/20 23/23/20 22/22/19
f 83/93/20 84/96/21 24/24/21 23/23/20
f 84/95/21 85/97/5 8/8/5 24/24/21
f 86/100/22 90/107/7 10/10/7 25/25/22
f 96/120/23 86/99/22 25/25/22 26/26/23
f 87/101/24 96/119/23 26/26/23 27/27/24
f 75/78/6 87/102/24 27/27/24 9/9/6
f 36/36/25 67/67/26 60/60/27 30/30/28
f 37/37/29 38/38/30 1/1/31 36/36/32
f 34/34/33 35/35/34 32/32/35 33/33/36
f 41/41/37 42/42/38 39/39/39 40/40/40
f 43/43/41 44/44/42 42/42/38 41/41/37
f 45/45/43 46/46/44 44/44/42 43/43/41
f 47/47/45 48/48/46 46/46/44 45/45/43
f 49/49/47 50/50/48 48/48/46 47/47/45
f 29/29/49 28/28/50 50/50/48 49/49/47
f 33/33/36 32/32/35 51/51/51 52/52/52
f 52/52/52 51/51/51 53/53/53 54/54/54
f 54/54/54 53/53/53 55/55/55 56/56/56
f 56/56/56 55/55/55 57/57/57 58/58/58
f 58/58/58 57/57/57 59/59/59 60/60/60
f 60/60/60 59/59/59 31/31/61 30/30/62
f 61/61/63 62/62/64 35/35/34 34/34/33
f 63/63/65 64/64/66 62/62/64 61/61/63
f 65/65/67 66/66/68 64/64/66 63/63/65
f 67/67/69 68/68/70 66/66/68 65/65/67
f 36/36/32 1/1/31 68/68/70 67/67/69
f 40/40/40 39/39/39 2/2/71 69/69/72
f 69/69/72 2/2/71 70/70/73 71/71/74
f 71/71/74 70/70/73 3/3/75 72/72/76
f 72/72/76 3/3/75 38/38/30 37/37/29
f 30/30/28 29/29/77 37/37/78 36/36/25
f 37/37/78 29/29/77 49/49/79 72/72/80
f 60/60/27 67/67/26 65/65/81 58/58/82
f 58/58/82 65/65/81 63/63/83 56/56/84
f 56/56/84 63/63/83 61/61/85 54/54/86
f 54/54/86 61/61/85 34/34/87 52/52/88
f 52/52/88 34/34/87 33/33/89
f 72/72/80 49/49/79 47/47/90 71/71/91
f 71/71/91 47/47/90 45/45/92 69/69/93
f 69/69/93 45/45/92 43/43/94 40/40/95
f 40/40/95 43/43/94 41/41/96
f 30/30/62 31/31/61 28/28/50 29/29/49
f 3/3/97 70/70/97 96/119/97 87/101/97
f 70/70/97 2/2/97 86/99/97 96/120/97
f 2/2/97 39/39/97 90/107/97 86/100/97
f 68/68/97 1/1/97 85/97/97 84/95/97
f 66/66/97 68/68/97 84/96/97 83/93/97
f 64/64/97 66/66/97 83/94/97 82/91/97
f 62/62/97 64/64/97 82/92/97 81/89/97
f 35/35/97 62/62/97 81/90/97 74/75/97
f 31/31/97 59/59/97 95/117/97 73/73/97
f 59/59/97 57/57/97 94/115/97 95/118/97
f 57/57/97 55/55/97 93/113/97 94/116/97
f 55/55/97 53/53/97 92/111/97 93/114/97
f 53/53/97 51/51/97 91/109/97 92/112/97
f 51/51/97 32/32/97 89/105/97 91/110/97
f 50/50/97 28/28/97 88/103/97 80/87/97
f 48/48/97 50/50/97 80/88/97 79/85/97
f 46/46/97 48/48/97 79/86/97 78/83/97
f 44/44/97 46/46/97 78/84/97 77/81/97
f 42/42/97 44/44/97 77/82/97 76/79/97
f 39/39/97 42/42/97 76/80/97 90/108/97
f 1/1/97 38/38/97 75/77/97 85/98/97
f 32/32/97 35/35/97 74/76/97 89/106/97
f 28/28/97 31/31/97 73/74/97 88/104/97
f 38/38/97 3/3/97 87/102/97 75/78/97
