# Blender 3.4.0
# www.blender.org
mtllib mre_1.mtl
o mre_1
v -0.086848 0.028500 -0.137546
v 0.086799 0.028500 -0.137957
v 0.085858 0.030000 -0.122563
v -0.085090 0.030000 -0.120921
v 0.083233 0.032000 0.111719
v 0.083465 0.030000 0.138379
v 0.012900 0.030000 0.136562
v -0.010088 0.030000 0.133894
v -0.052164 0.030000 0.138410
v -0.081934 0.030000 0.139641
v -0.082758 0.032000 0.113368
v -0.052988 0.032000 0.112342
v -0.008859 0.032000 0.109673
v 0.014121 0.032000 0.110905
v 0.085858 0.027000 -0.122563
v -0.085090 0.027000 -0.120921
v 0.083233 0.028000 0.111719
v -0.082758 0.028000 0.113367
v -0.052988 0.028000 0.112342
v -0.008859 0.028000 0.109673
v 0.014121 0.028000 0.110905
v -0.078476 0.028926 0.088476
v -0.079697 0.028872 0.032771
v -0.081010 0.029055 -0.010816
v -0.082034 0.029056 -0.054402
v -0.081900 0.028325 -0.097989
v 0.079656 0.029417 0.090144
v 0.075843 0.028981 0.079036
v 0.080518 0.028398 -0.010016
v 0.082041 0.028661 -0.054569
v 0.082406 0.028197 -0.099123
v -0.077328 0.028023 0.076417
v 0.078705 0.027954 0.034538
v 0.038211 0.058726 0.078393
v 0.056298 0.050677 0.078702
v 0.059612 0.048953 0.096666
v -0.056614 0.048879 0.095677
v -0.039427 0.058726 0.077574
v -0.057568 0.050564 0.076755
v 0.056574 0.009033 0.078707
v 0.038211 0.001242 0.078393
v 0.059772 0.010960 0.096630
v -0.056907 0.010991 0.095608
v -0.058109 0.008900 0.076746
v -0.039527 0.001242 0.077063
v 0.041141 0.058679 -0.087533
v 0.061959 0.047734 -0.105800
v -0.040677 0.058679 -0.086969
v -0.061345 0.047747 -0.104914
v 0.041141 0.001321 -0.087533
v 0.062459 0.011397 -0.106231
v -0.061806 0.011394 -0.105345
v -0.040677 0.001321 -0.086969
v 0.041237 0.060000 -0.010210
v 0.060042 0.051533 -0.010117
v 0.060483 0.008056 -0.010115
v 0.041237 0.000000 -0.010210
v -0.041615 0.060000 -0.010621
v -0.060563 0.051612 -0.010715
v -0.060825 0.008147 -0.010716
v -0.041615 0.000000 -0.010621
v 0.058175 0.051481 0.034309
v 0.039432 0.060000 0.034100
v 0.039432 -0.000000 0.034100
v 0.058738 0.007993 0.034315
v -0.059209 0.051589 0.032999
v -0.040271 0.060000 0.033211
v -0.040271 -0.000000 0.033211
v -0.059522 0.008122 0.032996
v -0.061597 0.051612 -0.054423
v -0.042658 0.060000 -0.054442
v -0.042658 0.000000 -0.054442
v -0.061858 0.008147 -0.054423
v 0.061597 0.051564 -0.054548
v 0.042754 0.060000 -0.054529
v 0.042754 0.000000 -0.054529
v 0.061966 0.008093 -0.054549
vn -0.0000 1.0000 -0.0000
vn 0.0003 1.0000 -0.0000
vn -0.0000 -1.0000 -0.0000
vn 0.9965 -0.0347 0.0760
vn 0.9998 -0.0219 0.0028
vn 0.5525 -0.8335 -0.0095
vn 0.3165 -0.8754 -0.3653
vn -0.9995 -0.0000 0.0313
vn -0.9432 0.3308 0.0315
vn -0.9444 -0.3253 0.0485
vn 1.0000 -0.0000 -0.0087
vn 0.9981 -0.0000 0.0610
vn 0.9453 0.3248 -0.0291
vn 0.9426 -0.3331 -0.0234
vn -0.9443 0.3288 -0.0166
vn -0.9945 -0.0000 0.1051
vn -0.9412 -0.3379 -0.0085
vn -0.9966 -0.0168 -0.0805
vn -0.9972 -0.0472 0.0580
vn -0.5474 -0.8343 0.0655
vn -0.2999 -0.8632 0.4061
vn 0.1951 -0.9806 0.0207
vn 0.1421 -0.9673 0.2099
vn -0.1525 -0.9658 0.2096
vn -0.1965 -0.9803 0.0179
vn 0.3486 0.8709 0.3464
vn 0.9768 -0.0107 -0.2137
vn 0.9978 -0.0252 -0.0611
vn 0.5690 0.8223 -0.0088
vn -0.5799 0.8145 -0.0199
vn -0.3444 0.8509 -0.3966
vn -0.9974 -0.0311 0.0656
vn -0.9999 -0.0151 -0.0083
vn 0.3436 0.8532 -0.3925
vn 0.2158 0.9762 -0.0223
vn -0.2140 0.9765 -0.0253
vn -0.2075 0.9782 0.0057
vn 0.2105 0.9776 0.0082
vn 0.9990 -0.0265 0.0372
vn 0.9980 -0.0351 0.0524
vn 0.5584 -0.8289 0.0341
vn 0.5599 -0.8284 0.0188
vn 0.5438 -0.8392 0.0090
vn 0.2020 -0.9792 -0.0211
vn 0.1971 -0.9804 0.0070
vn -0.1994 -0.9799 0.0053
vn -0.2034 -0.9788 -0.0232
vn -0.3220 0.8644 0.3863
vn 0.1544 0.9581 -0.2413
vn -0.1550 0.9577 -0.2425
vn 0.3368 -0.8705 0.3589
vn -0.5863 0.8100 0.0164
vn -0.9995 -0.0156 0.0268
vn 0.5934 0.8046 0.0243
vn 0.5846 0.8112 -0.0116
vn 0.5927 0.8048 0.0322
vn 0.2088 0.9777 0.0209
vn -0.2070 0.9781 0.0195
vn -0.1623 0.9637 0.2121
vn 0.1514 0.9659 0.2102
vn 0.8547 0.5168 0.0496
vn 0.8576 -0.5099 0.0667
vn -0.3205 -0.8730 -0.3677
vn -0.5559 -0.8311 -0.0140
vn 0.0011 -0.6454 0.7639
vn -0.0165 -0.6677 0.7442
vn -0.9990 -0.0184 0.0418
vn -0.5617 -0.8270 0.0235
vn -0.5882 0.8082 0.0308
vn -0.5810 0.8124 0.0502
vn -0.5661 -0.8242 0.0147
vn 0.1429 -0.9646 -0.2218
vn -0.1450 -0.9641 -0.2225
vn 0.0295 0.7055 0.7081
vn 0.0011 0.6464 0.7630
vn 0.0005 -1.0000 -0.0000
vn -0.0000 1.0000 -0.0001
vn -0.0000 -1.0000 -0.0001
vn 0.0294 -0.7044 0.7091
vn -0.0165 0.6687 0.7433
vt 0.946159 0.956291
vt 0.053841 0.956291
vt 0.053841 0.957645
vt 0.946159 0.957645
vt 0.941325 0.906887
vt 0.062876 0.901472
vt 0.927833 0.134418
vt 0.929025 0.046514
vt 0.070975 0.046514
vt 0.566416 0.052505
vt 0.433584 0.052505
vt 0.448287 0.061303
vt 0.551713 0.061303
vt 0.232070 0.046415
vt 0.767930 0.046415
vt 0.920909 0.042355
vt 0.079091 0.042355
vt 0.074858 0.128982
vt 0.227837 0.132365
vt 0.454600 0.141165
vt 0.572689 0.137101
vt 0.941325 0.906887
vt 0.058675 0.906887
vt 0.062876 0.901472
vt 0.937124 0.901472
vt 0.927833 0.134418
vt 0.072167 0.134418
vt 0.074858 0.128982
vt 0.925142 0.128982
vt 0.772163 0.132365
vt 0.545400 0.141165
vt 0.427311 0.137101
vt 0.903136 0.211056
vt 0.096864 0.211056
vt 0.090589 0.394725
vt 0.909411 0.394725
vt 0.083841 0.538439
vt 0.916159 0.538439
vt 0.078577 0.682150
vt 0.921423 0.682150
vt 0.079268 0.825863
vt 0.920732 0.825863
vt 0.909456 0.205554
vt 0.090544 0.205554
vt 0.092930 0.241997
vt 0.907070 0.241997
vt 0.913882 0.535798
vt 0.086118 0.535798
vt 0.078291 0.682700
vt 0.921709 0.682700
vt 0.076416 0.829600
vt 0.923584 0.829600
vt 0.914479 0.251012
vt 0.085521 0.251012
vt 0.095429 0.388898
vt 0.904571 0.388898
vt 0.705226 0.244212
vt 0.802239 0.243148
vt 0.806456 0.184051
vt 0.209204 0.187311
vt 0.288810 0.247032
vt 0.191508 0.249848
vt 0.196280 0.243131
vt 0.294774 0.244212
vt 0.192722 0.184170
vt 0.792306 0.187539
vt 0.811396 0.249881
vt 0.711730 0.248788
vt 0.721223 0.791431
vt 0.818509 0.851618
vt 0.281417 0.789483
vt 0.184892 0.848696
vt 0.278777 0.791431
vt 0.178918 0.853037
vt 0.817475 0.850116
vt 0.718583 0.789483
vt 0.712028 0.536439
vt 0.808666 0.536132
vt 0.189070 0.536125
vt 0.287972 0.536439
vt 0.286282 0.537793
vt 0.188913 0.538104
vt 0.812436 0.538108
vt 0.713718 0.537793
vt 0.799069 0.389652
vt 0.702756 0.390343
vt 0.297244 0.390343
vt 0.198040 0.389633
vt 0.195866 0.393970
vt 0.293188 0.393274
vt 0.706812 0.393274
vt 0.805737 0.393983
vt 0.183601 0.682219
vt 0.280922 0.682282
vt 0.719078 0.682282
vt 0.817742 0.682217
vt 0.816653 0.682631
vt 0.719826 0.682568
vt 0.280174 0.682568
vt 0.181452 0.682632
s 1
usemtl mre_1
f 2/4/1 1/2/2 4/6/1 3/5/1
f 2/3/3 15/23/3 16/25/3 1/1/3
f 31/51/4 30/49/5 77/100/6 51/74/7
f 10/17/8 11/18/9 18/28/10
f 5/7/11 6/8/11 17/26/11
f 2/4/12 3/5/13 15/22/14
f 4/6/15 1/2/16 16/24/17
f 22/33/18 32/53/19 44/67/20 43/66/21
f 64/87/22 41/64/23 45/68/24 68/91/25
f 36/59/26 27/43/27 28/46/28 35/58/29
f 70/93/30 49/72/31 26/41/32 25/39/33
f 3/5/13 47/70/34 31/52/4
f 75/98/35 71/94/36 58/81/37 54/77/38
f 29/48/39 33/55/40 65/88/41 56/79/42
f 33/55/40 28/45/28 40/63/43 65/88/41
f 76/99/44 57/80/45 61/84/46 72/95/47
f 51/74/7 15/23/14 31/51/4
f 11/18/9 37/60/48 22/34/18
f 46/69/49 48/71/50 71/94/36 75/98/35
f 28/45/28 27/44/27 42/65/51 40/63/43
f 18/28/10 11/18/9 22/34/18
f 59/82/52 70/93/30 25/39/33 24/37/53
f 4/6/15 16/24/17 26/41/32
f 55/78/54 29/47/39 30/50/5 74/97/55
f 62/85/56 33/56/40 29/47/39 55/78/54
f 63/86/57 67/90/58 38/61/59 34/57/60
f 36/59/26 5/7/61 27/43/27
f 15/22/14 3/5/13 31/52/4
f 5/7/61 17/26/62 27/43/27
f 25/40/33 26/42/32 52/75/63 73/96/64
f 20/31/65 43/66/21 42/65/51 21/32/66
f 32/53/19 23/36/67 69/92/68 44/67/20
f 17/27/62 42/65/51 27/44/27
f 15/23/14 51/74/7 52/75/63 16/25/17
f 54/77/38 58/81/37 67/90/58 63/86/57
f 49/72/31 4/6/15 26/41/32
f 66/89/69 23/35/67 32/54/19 39/62/70
f 43/66/21 18/29/10 22/33/18
f 52/75/63 26/42/32 16/25/17
f 30/49/5 29/48/39 56/79/42 77/100/6
f 57/80/45 64/87/22 68/91/25 61/84/46
f 24/38/53 25/40/33 73/96/64 60/83/71
f 3/5/13 4/6/15 49/72/31 47/70/34
f 66/89/69 59/82/52 24/37/53 23/35/67
f 23/36/67 24/38/53 60/83/71 69/92/68
f 74/97/55 30/50/5 31/52/4 47/70/34
f 39/62/70 32/54/19 22/34/18 37/60/48
f 50/73/72 76/99/44 72/95/47 53/76/73
f 63/86/57 34/57/60 35/58/29 62/85/56
f 34/57/60 36/59/26 35/58/29
f 38/61/59 39/62/70 37/60/48
f 41/64/23 64/87/22 65/88/41 40/63/43
f 41/64/23 40/63/43 42/65/51
f 45/68/24 43/66/21 44/67/20
f 71/94/36 48/71/50 49/72/31 70/93/30
f 53/76/73 72/95/47 73/96/64 52/75/63
f 75/98/35 54/77/38 55/78/54 74/97/55
f 57/80/45 76/99/44 77/100/6 56/79/42
f 67/90/58 58/81/37 59/82/52 66/89/69
f 61/84/46 68/91/25 69/92/68 60/83/71
f 54/77/38 63/86/57 62/85/56 55/78/54
f 64/87/22 57/80/45 56/79/42 65/88/41
f 38/61/59 67/90/58 66/89/69 39/62/70
f 68/91/25 45/68/24 44/67/20 69/92/68
f 58/81/37 71/94/36 70/93/30 59/82/52
f 72/95/47 61/84/46 60/83/71 73/96/64
f 46/69/49 75/98/35 74/97/55 47/70/34
f 76/99/44 50/73/72 51/74/7 77/100/6
f 37/60/48 36/59/26 34/57/60 38/61/59
f 42/65/51 43/66/21 45/68/24 41/64/23
f 48/71/50 46/69/49 47/70/34 49/72/31
f 50/73/72 53/76/73 52/75/63 51/74/7
f 35/58/29 28/46/28 33/56/40 62/85/56
f 11/18/9 12/19/74 37/60/48
f 42/65/51 17/27/62 21/32/66
f 12/19/74 13/20/75 37/60/48
f 19/30/3 9/15/3 10/16/76 18/29/3
f 12/19/1 9/14/1 8/12/1 13/20/77
f 7/11/3 8/13/3 20/31/78 21/32/3
f 14/21/1 13/20/77 8/12/1 7/10/1
f 19/30/79 18/29/10 43/66/21
f 6/8/1 5/7/1 14/21/1 7/10/1
f 6/9/3 7/11/3 21/32/3 17/27/3
f 11/18/1 10/17/1 9/14/1 12/19/1
f 5/7/61 36/59/26 14/21/80
f 20/31/65 19/30/79 43/66/21
f 8/13/3 9/15/3 19/30/3 20/31/78
f 36/59/26 37/60/48 13/20/75 14/21/80
