# Blender 3.4.0
# www.blender.org
mtllib wall_box_3.mtl
o wall_box_3
v -0.248149 0.350149 0.144000
v 0.249349 -0.357349 0.144000
v 0.255349 -0.363349 0.150000
v 0.255349 0.356149 0.150000
v 0.249349 0.350149 0.144000
v -0.248149 -0.357349 0.144000
v -0.254149 -0.363349 0.150000
v -0.254149 0.356149 0.150000
v 0.290091 0.385660 0.150000
v 0.295200 0.390000 0.144000
v 0.289200 0.396000 0.144000
v 0.284860 0.390891 0.150000
v 0.284860 -0.398091 0.150000
v 0.289200 -0.403200 0.144000
v 0.295200 -0.397200 0.144000
v 0.290091 -0.392860 0.150000
v -0.288891 -0.392860 0.150000
v -0.294000 -0.397200 0.144000
v -0.288000 -0.403200 0.144000
v -0.283660 -0.398091 0.150000
v -0.283660 0.390891 0.150000
v -0.288000 0.396000 0.144000
v -0.294000 0.390000 0.144000
v -0.288891 0.385660 0.150000
v 0.289200 0.396000 -0.000000
v 0.295200 0.390000 -0.000000
v 0.295200 -0.397200 -0.000000
v -0.288000 0.396000 -0.000000
v 0.289200 -0.403200 -0.000000
v -0.288000 -0.403200 -0.000000
v -0.294000 -0.397200 -0.000000
v -0.294000 0.390000 -0.000000
vn -0.0000 -0.0000 1.0000
vn 0.7071 0.7071 -0.0000
vn -0.7071 -0.7071 -0.0000
vn -0.7071 -0.0000 0.7071
vn -0.0000 0.7071 0.7071
vn -0.0000 -0.7071 0.7071
vn 0.7071 -0.0000 0.7071
vn 1.0000 -0.0000 -0.0000
vn 0.4725 0.4725 0.7440
vn 0.4725 -0.4725 0.7440
vn -0.4725 -0.4725 0.7440
vn -0.4725 0.4725 0.7440
vn -0.0000 -0.7614 0.6483
vn 0.7614 -0.0000 0.6483
vn -0.0000 0.7614 0.6483
vn -0.7614 -0.0000 0.6483
vn 0.7071 -0.7071 -0.0000
vn -1.0000 -0.0000 -0.0000
vn -0.0000 -1.0000 -0.0000
vn -0.7071 0.7071 -0.0000
vn -0.0000 1.0000 -0.0000
vt 0.051880 0.961752
vt 0.643291 0.964610
vt 0.614787 0.371581
vt 0.621576 0.366576
vt 0.621576 0.966757
vt 0.614787 0.961752
vt 0.051880 0.371581
vt 0.643291 0.370056
vt 0.650139 0.370056
vt 0.045091 0.366576
vt 0.650139 0.964610
vt 0.045091 0.966757
vt 0.000448 0.088550
vt 0.660886 0.991375
vt 0.993197 0.994995
vt 0.000012 0.093546
vt 0.666667 0.994995
vt 0.006802 0.093546
vt 0.654967 0.995738
vt 0.006367 0.088550
vt 0.011713 0.088550
vt 0.654967 0.337595
vt 0.659878 0.333333
vt 0.006802 0.093546
vt 0.993197 0.338338
vt 0.666667 0.338338
vt 0.000012 0.093546
vt 0.660886 0.341958
vt 0.005781 0.341958
vt 0.666757 0.093546
vt 0.000000 0.338338
vt 0.993197 0.338338
vt 0.006789 0.333333
vt 0.659967 0.093546
vt 0.011699 0.337595
vt 0.011699 0.995738
vt 0.660402 0.088550
vt 0.655056 0.088550
vt 0.659967 0.093546
vt 0.000000 0.994995
vt 0.993197 0.994995
vt 0.666757 0.093546
vt 0.666322 0.088550
vt 0.005781 0.991375
vt 0.006802 0.213448
vt 0.000012 0.213448
vt 0.829932 0.994995
vt 0.829932 0.338338
vt 0.000012 0.213448
vt 0.659967 0.213448
vt 0.006802 0.213448
vt 0.659967 0.213448
vt 0.666757 0.213448
vt 0.829932 0.338338
vt 0.829932 0.994995
vt 0.666757 0.213448
s 0
usemtl wall_box_3
f 13/22/1 16/28/1 3/4/1
f 25/45/2 11/18/2 10/16/2 26/46/2
f 8/12/1 4/5/1 12/19/1 21/36/1
f 8/12/1 21/36/1 24/44/1
f 12/19/1 4/5/1 9/14/1
f 30/52/3 19/34/3 18/30/3 31/53/3
f 2/3/1 5/6/1 1/1/1 6/7/1
f 7/10/1 17/29/1 20/35/1
f 5/6/4 2/3/4 3/4/4 4/5/4
f 7/10/5 3/4/5 2/3/5 6/7/5
f 4/5/6 8/12/6 1/1/6 5/6/6
f 8/11/7 7/9/7 6/8/7 1/2/7
f 27/48/8 26/47/8 10/15/8 15/25/8
f 3/4/1 7/10/1 20/35/1 13/22/1
f 7/10/1 8/12/1 24/44/1 17/29/1
f 12/20/9 9/13/9 10/16/9 11/18/9
f 16/28/10 13/22/10 14/23/10 15/26/10
f 20/35/11 17/29/11 18/31/11 19/33/11
f 24/43/12 21/37/12 22/39/12 23/42/12
f 13/22/13 20/35/13 19/33/13 14/23/13
f 9/14/14 16/28/14 15/26/14 10/17/14
f 21/38/15 12/21/15 11/18/15 22/39/15
f 17/29/16 24/44/16 23/40/16 18/31/16
f 4/5/1 3/4/1 16/28/1 9/14/1
f 14/24/17 29/51/17 27/49/17 15/27/17
f 18/32/18 23/41/18 32/55/18 31/54/18
f 14/24/19 19/34/19 30/52/19 29/51/19
f 22/39/20 28/50/20 32/56/20 23/42/20
f 22/39/21 11/18/21 25/45/21 28/50/21
