# Blender 3.4.0
# www.blender.org
mtllib wall_box_1.mtl
o wall_box_1
v -0.206791 0.291791 0.240000
v 0.207791 -0.297791 0.240000
v 0.212791 -0.302791 0.245000
v 0.212791 0.296791 0.245000
v 0.207791 0.291791 0.240000
v -0.206791 -0.297791 0.240000
v -0.211791 -0.302791 0.245000
v -0.211791 0.296791 0.245000
v 0.246000 -0.336000 -0.000000
v 0.246000 0.330000 -0.000000
v -0.245000 -0.336000 -0.000000
v -0.245000 0.330000 -0.000000
v 0.246000 0.330000 0.245000
v 0.246000 -0.336000 0.245000
v -0.245000 -0.336000 0.245000
v -0.245000 0.330000 0.245000
v 0.227791 0.311791 0.240000
v 0.227791 -0.317791 0.240000
v -0.226791 -0.317791 0.240000
v -0.226791 0.311791 0.240000
v 0.227791 0.311791 0.010000
v 0.227791 -0.317791 0.010000
v -0.226791 -0.317791 0.010000
v -0.226791 0.311791 0.010000
v 0.000500 -0.317791 0.010000
v 0.000500 0.311791 0.010000
v 0.004791 0.311791 0.220000
v 0.004791 -0.317791 0.220000
v 0.004791 0.311791 0.010000
v 0.004791 -0.317791 0.010000
v -0.005209 0.311791 0.220000
v -0.005209 -0.317791 0.220000
v -0.005209 -0.317791 0.010000
v -0.005209 0.311791 0.010000
v -0.226791 0.122209 0.220000
v -0.226791 0.122209 0.010000
v -0.226791 0.132209 0.220000
v -0.226791 0.132209 0.010000
v -0.004500 0.122209 0.220000
v -0.004500 0.122209 0.010000
v -0.004500 0.132209 0.220000
v -0.004500 0.132209 0.010000
v -0.226791 -0.077791 0.220000
v -0.226791 -0.077791 0.010000
v -0.226791 -0.067791 0.220000
v -0.226791 -0.067791 0.010000
v -0.004500 -0.077791 0.220000
v -0.004500 -0.077791 0.010000
v -0.004500 -0.067791 0.220000
v -0.004500 -0.067791 0.010000
vn -0.0000 -0.0000 1.0000
vn -0.7071 -0.0000 0.7071
vn -0.0000 0.7071 0.7071
vn -0.0000 -0.7071 0.7071
vn 0.7071 -0.0000 0.7071
vn -0.0000 1.0000 -0.0000
vn -0.0000 -1.0000 -0.0000
vn 1.0000 -0.0000 -0.0000
vn -1.0000 -0.0000 -0.0000
vn -0.0000 -0.0000 -1.0000
vt 0.051880 0.961752
vt 0.643291 0.964610
vt 0.614787 0.371581
vt 0.621576 0.366576
vt 0.621576 0.966757
vt 0.614787 0.961752
vt 0.051880 0.371581
vt 0.643291 0.370056
vt 0.650139 0.370056
vt 0.045091 0.366576
vt 0.650139 0.964610
vt 0.045091 0.966757
vt 0.000012 0.333351
vt 0.666667 0.333326
vt 0.000012 0.333351
vt 0.666667 0.999992
vt 0.666667 0.333334
vt 0.666757 0.333351
vt 0.666667 1.000001
vt 0.000012 0.088550
vt 1.000000 1.000000
vt 0.666668 1.000000
vt 0.000012 0.088550
vt 1.000000 0.333334
vt 0.666668 0.333333
vt 0.666757 0.088550
vt 1.000000 0.333333
vt 0.000000 0.333333
vt 0.666757 0.088550
vt 1.000000 1.000000
vt 0.000000 1.000000
vt 0.614787 0.961752
vt 0.667845 1.000000
vt 0.671378 0.335938
vt 0.614787 0.371581
vt 0.667844 0.333333
vt 0.671378 0.335938
vt 0.667844 0.333333
vt 0.051880 0.371581
vt 0.643291 0.370056
vt 0.000000 0.335938
vt 0.667845 1.000000
vt 0.051880 0.961752
vt 0.643291 0.964610
vt 0.000000 0.335938
vt 1.000000 1.000000
vt 0.671378 0.088542
vt 1.000000 0.333333
vt 0.671378 0.088542
vt 1.000000 0.335938
vt 1.000000 0.333333
vt 0.667845 0.335938
vt 0.000000 0.088542
vt 1.000000 1.000000
vt 0.667845 1.000000
vt 0.000000 0.088542
vt 1.000000 0.335938
vt 0.666078 0.335938
vt 0.335689 0.088542
vt 1.000000 1.000000
vt 0.666078 1.000000
vt 0.335689 0.088542
vt 0.674912 1.000000
vt 0.809187 0.994792
vt 0.674912 0.335938
vt 0.809187 0.335938
vt 1.000000 1.000000
vt 1.000000 0.335938
vt 0.674912 1.000000
vt 0.795053 0.994792
vt 0.674912 0.335938
vt 0.795053 0.335938
vt 1.000000 0.335938
vt 1.000000 1.000000
vt 0.000000 0.335938
vt 0.000000 0.242188
vt 0.000000 0.111979
vt 0.000000 0.252604
vt 0.000000 0.335938
vt 0.000000 0.111979
vt 0.335689 0.335938
vt 0.333922 0.242188
vt 0.335689 0.111979
vt 0.333922 0.252604
vt 0.335689 0.335938
vt 0.335689 0.111979
vt 0.000000 0.335938
vt 0.000000 0.242188
vt 0.000000 0.111979
vt 0.000000 0.252604
vt 0.000000 0.335938
vt 0.000000 0.111979
vt 0.335689 0.335938
vt 0.333922 0.242188
vt 0.335689 0.111979
vt 0.333922 0.252604
vt 0.335689 0.335938
vt 0.335689 0.111979
s 0
usemtl wall_box_1
f 8/12/1 4/5/1 13/22/1 16/31/1
f 5/6/2 2/3/2 3/4/2 4/5/2
f 7/10/3 3/4/3 2/3/3 6/7/3
f 4/5/4 8/12/4 1/1/4 5/6/4
f 8/11/5 7/9/5 6/8/5 1/2/5
f 16/29/6 13/20/6 10/15/6 12/18/6
f 14/23/7 15/26/7 11/17/7 9/13/7
f 9/14/8 10/16/8 13/21/8 14/24/8
f 15/27/9 16/30/9 12/19/9 11/17/9
f 3/4/1 7/10/1 15/28/1 14/25/1
f 7/10/1 8/12/1 16/31/1 15/28/1
f 4/5/1 3/4/1 14/25/1 13/22/1
f 2/3/10 5/6/10 17/32/10 18/35/10
f 20/42/8 19/38/8 23/51/8 24/54/8
f 5/6/10 1/1/10 20/43/10 17/32/10
f 6/7/10 2/3/10 18/35/10 19/39/10
f 1/2/10 6/8/10 19/40/10 20/44/10
f 25/57/1 26/60/1 24/55/1 23/52/1
f 18/36/9 17/33/9 21/46/9 22/48/9
f 20/45/7 24/56/7 26/62/7
f 18/37/6 22/49/6 25/59/6
f 22/50/1 21/46/1 26/61/1 25/58/1
f 21/47/7 17/34/7 26/62/7
f 17/34/7 20/45/7 26/62/7
f 23/53/6 19/41/6 25/59/6
f 19/41/6 18/37/6 25/59/6
f 32/71/9 31/69/9 34/74/9 33/73/9
f 27/63/8 28/65/8 30/68/8 29/67/8
f 28/66/1 27/64/1 31/70/1 32/72/1
f 39/81/7 35/75/7 36/77/7 40/83/7
f 35/76/1 39/82/1 41/84/1 37/78/1
f 37/79/6 41/85/6 42/86/6 38/80/6
f 47/93/7 43/87/7 44/89/7 48/95/7
f 43/88/1 47/94/1 49/96/1 45/90/1
f 45/91/6 49/97/6 50/98/6 46/92/6
o wall_box_1_door
v -0.206791 0.291791 0.240000
v 0.207791 -0.297791 0.240000
v 0.207791 0.291791 0.240000
v -0.206791 -0.297791 0.240000
v 0.149114 0.258155 0.240000
v 0.166114 0.241155 0.240000
v 0.157614 0.255877 0.240000
v 0.163836 0.249655 0.240000
v 0.166114 -0.247155 0.240000
v 0.149114 -0.264155 0.240000
v 0.163836 -0.255655 0.240000
v 0.157614 -0.261877 0.240000
v -0.045665 -0.264155 0.240000
v -0.062665 -0.247155 0.240000
v -0.054165 -0.261877 0.240000
v -0.060387 -0.255655 0.240000
v -0.062665 0.241155 0.240000
v -0.045665 0.258155 0.240000
v -0.060387 0.249655 0.240000
v -0.054165 0.255877 0.240000
v 0.207791 0.291791 0.220000
v 0.207791 -0.297791 0.220000
v -0.206791 -0.297791 0.220000
v -0.206791 0.291791 0.220000
v 0.149114 0.258155 0.220000
v 0.157614 0.255877 0.220000
v 0.163836 0.249655 0.220000
v 0.166114 0.241155 0.220000
v 0.166114 -0.247155 0.220000
v 0.163836 -0.255655 0.220000
v 0.157614 -0.261877 0.220000
v 0.149114 -0.264155 0.220000
v -0.045665 -0.264155 0.220000
v -0.054165 -0.261877 0.220000
v -0.060387 -0.255655 0.220000
v -0.062665 -0.247155 0.220000
v -0.062665 0.241155 0.220000
v -0.060387 0.249655 0.220000
v -0.054165 0.255877 0.220000
v -0.045665 0.258155 0.220000
v 0.149114 0.258155 0.235000
v 0.157614 0.255877 0.235000
v 0.163836 0.249655 0.235000
v 0.166114 0.241155 0.235000
v 0.166114 -0.247155 0.235000
v 0.163836 -0.255655 0.235000
v 0.157614 -0.261877 0.235000
v 0.149114 -0.264155 0.235000
v -0.045665 -0.264155 0.235000
v -0.054165 -0.261877 0.235000
v -0.060387 -0.255655 0.235000
v -0.062665 -0.247155 0.235000
v -0.062665 0.241155 0.235000
v -0.060387 0.249655 0.235000
v -0.054165 0.255877 0.235000
v -0.045665 0.258155 0.235000
v 0.149114 0.258155 0.225000
v 0.157614 0.255877 0.225000
v 0.163836 0.249655 0.225000
v 0.166114 0.241155 0.225000
v 0.166114 -0.247155 0.225000
v 0.163836 -0.255655 0.225000
v 0.157614 -0.261877 0.225000
v 0.149114 -0.264155 0.225000
v -0.045665 -0.264155 0.225000
v -0.054165 -0.261877 0.225000
v -0.060387 -0.255655 0.225000
v -0.062665 -0.247155 0.225000
v -0.062665 0.241155 0.225000
v -0.060387 0.249655 0.225000
v -0.054165 0.255877 0.225000
v -0.045665 0.258155 0.225000
v -0.132823 -0.018015 0.212000
v -0.140015 -0.010824 0.212000
v -0.142647 -0.001000 0.212000
v -0.140015 0.008824 0.212000
v -0.132823 0.016015 0.212000
v -0.123000 -0.020647 0.212000
v -0.105985 -0.010824 0.212000
v -0.113176 -0.018015 0.212000
v -0.123000 0.018647 0.212000
v -0.103353 -0.001000 0.212000
v -0.113176 0.016015 0.212000
v -0.105985 0.008824 0.212000
v -0.153000 -0.001000 0.222000
v -0.123000 -0.031000 0.222000
v -0.148981 -0.016000 0.222000
v -0.138000 -0.026981 0.222000
v -0.123000 0.029000 0.222000
v -0.138000 0.024981 0.222000
v -0.148981 0.014000 0.222000
v -0.093000 -0.001000 0.222000
v -0.108000 -0.026981 0.222000
v -0.097019 -0.016000 0.222000
v -0.097019 0.014000 0.222000
v -0.108000 0.024981 0.222000
v -0.123000 0.029000 0.212000
v -0.138000 0.024981 0.212000
v -0.153000 -0.001000 0.212000
v -0.148981 -0.016000 0.212000
v -0.097019 -0.016000 0.212000
v -0.093000 -0.001000 0.212000
v -0.138000 -0.026981 0.212000
v -0.123000 -0.031000 0.212000
v -0.108000 -0.026981 0.212000
v -0.108000 0.024981 0.212000
v -0.097019 0.014000 0.212000
v -0.148981 0.014000 0.212000
v -0.123000 0.012435 0.208000
v -0.129718 0.010635 0.208000
v -0.136435 -0.001000 0.208000
v -0.134635 -0.007718 0.208000
v -0.111364 -0.007718 0.208000
v -0.109564 -0.001000 0.208000
v -0.129718 -0.012636 0.208000
v -0.123000 -0.014436 0.208000
v -0.116282 -0.012636 0.208000
v -0.116282 0.010635 0.208000
v -0.111364 0.005718 0.208000
v -0.134635 0.005718 0.208000
v -0.123000 0.018647 0.208000
v -0.132823 0.016015 0.208000
v -0.142647 -0.001000 0.208000
v -0.140015 -0.010824 0.208000
v -0.105985 -0.010824 0.208000
v -0.103353 -0.001000 0.208000
v -0.132823 -0.018015 0.208000
v -0.123000 -0.020647 0.208000
v -0.113176 -0.018015 0.208000
v -0.113176 0.016015 0.208000
v -0.105985 0.008824 0.208000
v -0.140015 0.008824 0.208000
v -0.134635 -0.007718 0.203000
v -0.109564 -0.001000 0.203000
v -0.129718 -0.012636 0.203000
v -0.116282 -0.012636 0.203000
v -0.116282 0.010635 0.203000
v -0.111364 0.005718 0.203000
v -0.123000 0.012435 0.203000
v -0.129718 0.010635 0.203000
v -0.123000 -0.014436 0.203000
v -0.134635 0.005718 0.203000
v -0.136435 -0.001000 0.203000
v -0.111364 -0.007718 0.203000
v -0.109564 -0.001000 0.200000
v -0.129718 -0.012636 0.200000
v -0.123000 -0.014436 0.200000
v -0.136435 -0.001000 0.200000
v -0.134635 -0.007718 0.200000
v -0.111364 -0.007718 0.200000
v -0.116282 -0.012636 0.200000
v -0.109564 0.086000 0.219000
v -0.111364 0.092718 0.219000
v -0.123000 0.099435 0.219000
v -0.129718 0.097635 0.219000
v -0.134635 0.092718 0.219000
v -0.136435 0.086000 0.219000
v -0.116282 0.097635 0.219000
v -0.109564 0.086000 0.216000
v -0.111364 0.092718 0.216000
v -0.123000 0.099435 0.216000
v -0.129718 0.097635 0.216000
v -0.134635 0.092718 0.216000
v -0.136435 0.086000 0.216000
v -0.116282 0.097635 0.216000
v -0.109564 0.042500 0.200000
v -0.136435 0.042500 0.203000
v -0.136435 0.042500 0.200000
v -0.109564 0.042500 0.203000
vn -0.0000 -0.0000 -1.0000
vn -0.0000 -0.0000 1.0000
vn 1.0000 -0.0000 -0.0000
vn -0.9659 -0.2588 -0.0000
vn -0.0000 1.0000 -0.0000
vn 0.7071 0.7071 -0.0000
vn -0.7071 0.7071 -0.0000
vn 0.9659 -0.2588 -0.0000
vn -0.9659 0.2588 -0.0000
vn 0.7071 -0.7071 -0.0000
vn -0.2588 -0.9659 -0.0000
vn 0.2588 0.9659 -0.0000
vn -0.0000 -1.0000 -0.0000
vn -1.0000 -0.0000 -0.0000
vn -0.2588 0.9659 -0.0000
vn 0.2588 -0.9659 -0.0000
vn -0.7071 -0.7071 -0.0000
vn 0.9659 0.2588 -0.0000
vn -0.0000 -0.3452 0.9385
vn -0.0000 0.3452 -0.9385
vt 0.054499 0.958163
vt 0.795053 0.901042
vt 0.795053 0.335938
vt 0.795053 1.000000
vt 0.795053 0.434896
vt 0.613352 0.372447
vt 0.795053 0.335938
vt 0.795053 0.434896
vt 0.613352 0.958163
vt 0.795053 0.901042
vt 0.054499 0.372447
vt 0.795053 1.000000
vt 0.534256 0.924748
vt 0.557172 0.907859
vt 0.545714 0.922485
vt 0.554102 0.916303
vt 0.557172 0.422751
vt 0.534256 0.405862
vt 0.554102 0.414307
vt 0.545714 0.408125
vt 0.271696 0.405862
vt 0.248780 0.422751
vt 0.260238 0.408125
vt 0.251850 0.414307
vt 0.248780 0.907859
vt 0.271696 0.924748
vt 0.251850 0.916303
vt 0.260238 0.922485
vt 0.613352 0.958163
vt 0.763251 0.335938
vt 0.763251 0.434896
vt 0.763251 1.000000
vt 0.763251 0.434896
vt 0.613352 0.372447
vt 0.763251 0.901042
vt 0.054499 0.372447
vt 0.763251 1.000000
vt 0.763251 0.901042
vt 0.763251 0.335938
vt 0.054499 0.958163
vt 0.534256 0.924748
vt 0.545714 0.922485
vt 0.554102 0.916303
vt 0.557172 0.907859
vt 0.557172 0.422751
vt 0.554102 0.414307
vt 0.545714 0.408125
vt 0.534256 0.405862
vt 0.271696 0.405862
vt 0.260238 0.408125
vt 0.251850 0.414307
vt 0.248780 0.422751
vt 0.248780 0.907859
vt 0.251850 0.916303
vt 0.260238 0.922485
vt 0.271696 0.924748
vt 0.534256 0.924748
vt 0.545714 0.922485
vt 0.554102 0.916303
vt 0.557172 0.907859
vt 0.557172 0.422751
vt 0.554102 0.414307
vt 0.545714 0.408125
vt 0.534256 0.405862
vt 0.271696 0.405862
vt 0.260238 0.408125
vt 0.251850 0.414307
vt 0.248780 0.422751
vt 0.248780 0.907859
vt 0.251850 0.916303
vt 0.260238 0.922485
vt 0.271696 0.924748
vt 0.534256 0.924748
vt 0.545714 0.922485
vt 0.554102 0.916303
vt 0.557172 0.907859
vt 0.557172 0.422751
vt 0.554102 0.414307
vt 0.545714 0.408125
vt 0.534256 0.405862
vt 0.271696 0.405862
vt 0.260238 0.408125
vt 0.251850 0.414307
vt 0.248780 0.422751
vt 0.248780 0.907859
vt 0.251850 0.916303
vt 0.260238 0.922485
vt 0.271696 0.924748
vt 0.480353 0.433361
vt 0.504821 0.433361
vt 0.504821 0.480353
vt 0.465970 0.447744
vt 0.504821 0.447744
vt 0.460706 0.467391
vt 0.504821 0.467391
vt 0.465970 0.487038
vt 0.504821 0.487038
vt 0.504821 0.465970
vt 0.480353 0.501421
vt 0.504821 0.480353
vt 0.500000 0.428097
vt 0.504821 0.500000
vt 0.534030 0.447744
vt 0.504821 0.534030
vt 0.504821 0.447744
vt 0.519647 0.433361
vt 0.504821 0.519647
vt 0.500000 0.506685
vt 0.504821 0.500000
vt 0.539294 0.467391
vt 0.504821 0.467391
vt 0.519647 0.501421
vt 0.504821 0.519647
vt 0.534030 0.487038
vt 0.504821 0.534030
vt 0.504821 0.487038
vt 0.524821 0.467391
vt 0.524821 0.500000
vt 0.524821 0.448038
vt 0.524821 0.437391
vt 0.524821 0.470000
vt 0.524821 0.500000
vt 0.524821 0.470000
vt 0.524821 0.448038
vt 0.524821 0.497391
vt 0.524821 0.467391
vt 0.524821 0.530000
vt 0.524821 0.551962
vt 0.524821 0.437391
vt 0.524821 0.497391
vt 0.524821 0.530000
vt 0.524821 0.519352
vt 0.504821 0.500000
vt 0.500000 0.527391
vt 0.504821 0.470000
vt 0.470000 0.519352
vt 0.504821 0.467391
vt 0.440000 0.467391
vt 0.504821 0.448038
vt 0.504821 0.437391
vt 0.448038 0.437391
vt 0.504821 0.551962
vt 0.504821 0.437391
vt 0.551962 0.437391
vt 0.504821 0.467391
vt 0.560000 0.467391
vt 0.504821 0.470000
vt 0.470000 0.415429
vt 0.504821 0.500000
vt 0.500000 0.407391
vt 0.504821 0.530000
vt 0.530000 0.415429
vt 0.504821 0.530000
vt 0.504821 0.519352
vt 0.530000 0.519352
vt 0.504821 0.497391
vt 0.551962 0.497391
vt 0.504821 0.448038
vt 0.504821 0.497391
vt 0.448038 0.497391
vt 0.500000 0.494262
vt 0.496821 0.500000
vt 0.486564 0.490662
vt 0.496821 0.486564
vt 0.473129 0.467391
vt 0.496821 0.467391
vt 0.476729 0.453955
vt 0.496821 0.453955
vt 0.496821 0.476729
vt 0.523271 0.453955
vt 0.496821 0.453955
vt 0.526871 0.467391
vt 0.496821 0.467391
vt 0.486564 0.444120
vt 0.496821 0.486564
vt 0.500000 0.440520
vt 0.496821 0.500000
vt 0.513436 0.444120
vt 0.496821 0.513436
vt 0.496821 0.444120
vt 0.496821 0.513436
vt 0.513436 0.490662
vt 0.496821 0.490662
vt 0.523271 0.480827
vt 0.496821 0.480827
vt 0.476729 0.480827
vt 0.496821 0.476729
vt 0.496821 0.480827
vt 0.496821 0.500000
vt 0.500000 0.506685
vt 0.496821 0.480353
vt 0.480353 0.501421
vt 0.496821 0.467391
vt 0.460706 0.467391
vt 0.496821 0.447744
vt 0.465970 0.447744
vt 0.496821 0.534030
vt 0.496821 0.447744
vt 0.534030 0.447744
vt 0.496821 0.467391
vt 0.539294 0.467391
vt 0.496821 0.433361
vt 0.496821 0.480353
vt 0.480353 0.433361
vt 0.496821 0.500000
vt 0.500000 0.428097
vt 0.496821 0.519647
vt 0.519647 0.433361
vt 0.496821 0.519647
vt 0.519647 0.501421
vt 0.496821 0.534030
vt 0.496821 0.487038
vt 0.534030 0.487038
vt 0.496821 0.487038
vt 0.496821 0.465970
vt 0.465970 0.487038
vt 0.486821 0.453955
vt 0.486821 0.476729
vt 0.486821 0.467391
vt 0.526871 0.467391
vt 0.486821 0.486564
vt 0.486821 0.513436
vt 0.486821 0.444120
vt 0.486821 0.513436
vt 0.486821 0.490662
vt 0.513436 0.490662
vt 0.486821 0.480827
vt 0.523271 0.480827
vt 0.486821 0.500000
vt 0.500000 0.494262
vt 0.486821 0.486564
vt 0.486564 0.490662
vt 0.486821 0.500000
vt 0.486821 0.476729
vt 0.486821 0.480827
vt 0.476729 0.480827
vt 0.486821 0.467391
vt 0.473129 0.467391
vt 0.486821 0.453955
vt 0.480821 0.467391
vt 0.526871 0.467391
vt 0.480821 0.486564
vt 0.486564 0.444120
vt 0.480821 0.500000
vt 0.500000 0.440520
vt 0.480821 0.467391
vt 0.473129 0.467391
vt 0.480821 0.453955
vt 0.480821 0.476729
vt 0.476729 0.453955
vt 0.480821 0.453955
vt 0.523271 0.453955
vt 0.480821 0.513436
vt 0.480821 0.444120
vt 0.513436 0.444120
vt 0.518821 0.641391
vt 0.526871 0.641391
vt 0.518821 0.523271
vt 0.518821 0.654827
vt 0.523271 0.654827
vt 0.500000 0.668262
vt 0.518821 0.500000
vt 0.518821 0.486564
vt 0.486564 0.664662
vt 0.518821 0.654827
vt 0.518821 0.476729
vt 0.476729 0.654827
vt 0.518821 0.641391
vt 0.473129 0.641391
vt 0.513435 0.664662
vt 0.518821 0.513435
vt 0.526871 0.641391
vt 0.512821 0.641391
vt 0.512821 0.523271
vt 0.512821 0.654827
vt 0.523271 0.654827
vt 0.500000 0.668262
vt 0.512821 0.500000
vt 0.512821 0.486564
vt 0.486564 0.664662
vt 0.512821 0.654827
vt 0.512821 0.476729
vt 0.476729 0.654827
vt 0.473129 0.641391
vt 0.512821 0.641391
vt 0.513435 0.664662
vt 0.512821 0.513435
vt 0.526871 0.554391
vt 0.480821 0.554391
vt 0.486821 0.554391
vt 0.473129 0.554391
vt 0.473129 0.554391
vt 0.480821 0.554391
vt 0.486821 0.554391
vt 0.526871 0.554391
s 0
usemtl wall_box_1
f 80/144/11 72/132/11 81/145/11
f 57/113/12 53/107/12 55/111/12
f 54/109/12 63/119/12 65/121/12
f 56/112/12 53/107/12 58/114/12
f 51/99/12 69/125/12 70/126/12
f 58/114/12 53/107/12 57/113/12
f 78/142/11 71/127/11 72/132/11 79/143/11
f 85/149/11 73/134/11 86/150/11
f 72/132/11 73/134/11 83/147/11 82/146/11
f 52/104/12 62/118/12 60/116/12
f 68/124/12 51/99/12 70/126/12
f 87/151/11 86/150/11 73/134/11 74/138/11
f 86/150/13 87/151/13 119/183/13 118/182/13
f 88/152/11 74/138/11 89/153/11
f 68/124/12 55/111/12 53/107/12 51/99/12
f 104/168/12 103/167/12 106/170/12 105/169/12
f 74/138/11 90/154/11 89/153/11
f 76/140/11 71/127/11 77/141/11
f 61/117/12 52/104/12 59/115/12
f 84/148/11 73/134/11 85/149/11
f 75/139/11 71/127/11 76/140/11
f 122/186/11 107/171/11 110/174/11 119/183/11
f 77/141/11 71/127/11 78/142/11
f 79/143/11 72/132/11 80/144/11
f 67/123/12 69/125/12 51/99/12
f 90/154/11 74/138/11 71/127/11 75/139/11
f 77/141/14 78/142/14 110/174/14 109/173/14
f 63/119/15 60/116/15 98/162/15 99/163/15
f 67/123/12 51/99/12 54/109/12 64/120/12
f 84/148/16 85/149/16 117/181/16 116/180/16
f 62/118/17 61/117/17 96/160/17 97/161/17
f 115/179/11 118/182/11 111/175/11 114/178/11
f 69/125/18 67/123/18 103/167/18 104/168/18
f 66/122/16 65/121/16 100/164/16 101/165/16
f 61/117/19 59/115/19 95/159/19 96/160/19
f 70/126/20 69/125/20 104/168/20 105/169/20
f 57/113/21 55/111/21 91/155/21 92/156/21
f 102/166/12 95/159/12 94/158/12 103/167/12
f 65/121/22 63/119/22 99/163/22 100/164/22
f 90/154/23 75/139/23 107/171/23 122/186/23
f 56/112/24 94/158/24 95/159/24 59/115/24
f 80/144/17 81/145/17 113/177/17 112/176/17
f 53/105/13 52/102/13 72/130/13 71/128/13
f 60/116/25 62/118/25 97/161/25 98/162/25
f 68/124/26 70/126/26 105/169/26 106/170/26
f 58/114/27 57/113/27 92/156/27 93/157/27
f 55/111/23 68/124/23 106/170/23 91/155/23
f 95/159/12 102/166/12 99/163/12 98/162/12
f 56/112/14 58/114/14 93/157/14 94/158/14
f 89/153/26 90/154/26 122/186/26 121/185/26
f 76/140/27 77/141/27 109/173/27 108/172/27
f 85/149/28 86/150/28 118/182/28 117/181/28
f 81/145/25 82/146/25 114/178/25 113/177/25
f 52/103/23 54/108/23 73/133/23 72/131/23
f 51/100/15 53/106/15 71/129/15 74/136/15
f 64/120/28 66/122/28 101/165/28 102/166/28
f 79/143/24 111/175/24 110/174/24 78/142/24
f 87/151/18 88/152/18 120/184/18 119/183/18
f 83/147/22 84/148/22 116/180/22 115/179/22
f 79/143/19 80/144/19 112/176/19 111/175/19
f 88/152/20 89/153/20 121/185/20 120/184/20
f 75/139/21 76/140/21 108/172/21 107/171/21
f 82/146/15 83/147/15 115/179/15 114/178/15
f 64/120/12 54/109/12 66/122/12
f 66/122/12 54/109/12 65/121/12
f 62/118/12 52/104/12 61/117/12
f 72/132/11 82/146/11 81/145/11
f 83/147/11 73/134/11 84/148/11
f 110/174/11 107/171/11 108/172/11 109/173/11
f 111/175/11 118/182/11 119/183/11 110/174/11
f 52/104/12 60/116/12 63/119/12 54/109/12
f 56/112/12 59/115/12 52/104/12 53/107/12
f 116/180/11 117/181/11 118/182/11 115/179/11
f 120/184/11 121/185/11 122/186/11 119/183/11
f 112/176/11 113/177/11 114/178/11 111/175/11
f 106/170/12 103/167/12 94/158/12 91/155/12
f 100/164/12 99/163/12 102/166/12 101/165/12
f 67/123/13 64/120/13 102/166/13 103/167/13
f 92/156/12 91/155/12 94/158/12 93/157/12
f 96/160/12 95/159/12 98/162/12 97/161/12
f 54/110/24 51/101/24 74/137/24 73/135/24
f 87/151/11 74/138/11 88/152/11
usemtl metal_3
f 136/216/26 154/247/26 155/249/26 143/225/26
f 143/225/20 155/249/20 151/240/20 144/226/20
f 144/227/18 151/241/18 152/243/18 142/224/18
f 147/231/22 139/220/22 146/229/22 156/251/22
f 156/252/16 146/230/16 145/228/16 157/254/16
f 157/254/28 145/228/28 142/224/28 152/243/28
f 154/247/21 136/216/21 138/219/21 153/245/21
f 153/245/27 138/219/27 137/217/27 150/237/27
f 150/238/14 137/218/14 135/215/14 149/235/14
f 139/220/25 147/231/25 148/233/25 140/221/25
f 140/221/17 148/233/17 158/256/17 141/222/17
f 141/223/19 158/257/19 149/235/19 135/215/19
f 131/206/11 127/197/11 148/234/11 147/232/11
f 125/192/11 124/190/11 150/239/11 149/236/11
f 129/201/11 132/208/11 152/244/11 151/242/11
f 123/187/11 128/199/11 154/248/11 153/246/11
f 128/199/11 130/204/11 155/250/11 154/248/11
f 130/204/11 129/201/11 151/242/11 155/250/11
f 133/210/11 131/206/11 147/232/11 156/253/11
f 134/212/11 133/210/11 156/253/11 157/255/11
f 132/208/11 134/212/11 157/255/11 152/244/11
f 124/190/11 123/187/11 153/246/11 150/239/11
f 127/197/11 126/194/11 158/258/11 148/234/11
f 126/194/11 125/192/11 149/236/11 158/258/11
f 211/375/11 215/384/11 212/378/11
f 205/362/12 208/368/12 204/359/12
f 217/389/29 219/393/29 202/355/29 207/367/29
f 195/338/18 184/317/18 194/337/18 200/349/18
f 201/351/26 186/320/26 191/331/26 197/342/26
f 219/392/13 184/317/13 195/338/13 216/387/13
f 216/386/11 195/339/11 198/345/11 218/390/11
f 210/374/11 209/370/11 214/382/11 213/381/11
f 217/388/24 218/391/24 198/344/24 193/335/24
f 197/342/21 191/331/21 185/319/21 196/340/21
f 214/383/19 207/366/19 206/363/19 213/379/19
f 215/385/16 208/369/16 203/356/16 210/372/16
f 210/373/28 203/357/28 202/354/28 209/371/28
f 212/377/25 205/361/25 204/360/25 211/376/25
f 199/346/14 183/315/14 193/335/14 198/344/14
f 196/340/27 185/319/27 183/316/27 199/347/27
f 214/382/30 209/370/30 216/386/30 218/390/30
f 209/371/13 202/354/13 219/392/13 216/387/13
f 217/389/12 190/330/12 189/328/12
f 214/383/24 218/391/24 217/388/24 207/366/24
f 213/380/17 206/364/17 205/361/17 212/377/17
f 200/349/20 194/337/20 186/321/20 201/352/20
f 199/348/11 198/345/11 195/339/11 200/350/11
f 206/365/12 203/358/12 208/368/12 205/362/12
f 196/341/11 201/353/11 197/343/11
f 215/384/11 210/374/11 213/381/11 212/378/11
f 211/376/22 204/360/22 208/369/22 215/385/22
f 188/326/12 184/318/12 219/393/12
f 217/389/12 193/336/12 192/334/12
f 217/389/12 192/334/12 190/330/12
f 188/326/12 219/393/12 187/324/12
f 219/393/12 217/389/12 189/328/12
f 187/324/12 219/393/12 189/328/12
f 207/367/12 202/355/12 203/358/12 206/365/12
f 199/348/11 200/350/11 201/353/11 196/341/11
usemtl metal_4
f 127/198/25 131/207/25 171/287/25 172/289/25
f 159/260/22 168/279/22 187/322/22 189/327/22
f 133/211/16 134/213/16 181/309/16 180/307/16
f 130/205/26 128/200/26 178/303/26 179/305/26
f 125/193/19 126/195/19 182/312/19 173/291/19
f 124/191/14 125/193/14 173/291/14 174/293/14
f 134/214/28 132/209/28 176/298/28 181/310/28
f 129/202/20 130/205/20 179/305/20 175/295/20
f 132/209/18 129/203/18 175/296/18 176/298/18
f 123/188/27 124/191/27 174/293/27 177/300/27
f 131/207/22 133/211/22 180/307/22 171/287/22
f 128/200/21 123/189/21 177/301/21 178/303/21
f 126/196/17 127/198/17 172/289/17 182/313/17
f 159/259/11 160/261/11 172/290/11 171/288/11
f 161/263/11 162/265/11 174/294/11 173/292/11
f 163/268/11 164/270/11 176/299/11 175/297/11
f 165/272/11 166/274/11 178/304/11 177/302/11
f 166/274/11 167/276/11 179/306/11 178/304/11
f 167/276/11 163/268/11 175/297/11 179/306/11
f 168/280/11 159/259/11 171/288/11 180/308/11
f 169/282/11 168/280/11 180/308/11 181/311/11
f 164/270/11 169/282/11 181/311/11 176/299/11
f 162/265/11 165/272/11 177/302/11 174/294/11
f 160/261/11 170/284/11 182/314/11 172/290/11
f 170/284/11 161/263/11 173/292/11 182/314/11
f 166/275/21 165/273/21 185/319/21 191/331/21
f 170/285/17 160/262/17 190/329/17 192/332/17
f 160/262/25 159/260/25 189/327/25 190/329/25
f 168/281/16 169/283/16 188/325/16 187/323/16
f 167/277/26 166/275/26 191/331/26 186/320/26
f 161/264/19 170/286/19 192/333/19 193/335/19
f 162/266/14 161/264/14 193/335/14 183/315/14
f 169/283/28 164/271/28 184/317/28 188/325/28
f 163/269/20 167/278/20 186/321/20 194/337/20
f 164/271/18 163/269/18 194/337/18 184/317/18
f 165/273/27 162/267/27 183/316/27 185/319/27
